<svg xmlns="http://www.w3.org/2000/svg" viewBox="0 0 179.8 179.8" fill-rule="evenodd" xmlns:v="https://vecta.io/nano"><circle cx="89.9" cy="89.9" r="88" fill="none"></circle><path d="M33.7 73.2c1.5-1 3.1-1.8 4.8-2.3.5-.2.9-.3 1.3-.4.4-.2.9-.3 1.4-.3l-.2.7c-.9 1.6-2 2.5-3.3 2.7-1.3.1-2.7 0-4-.4m78 .1c.1-.1.1-.3.2-.4 1.2-.8 2.6-1.4 4.1-1.8.4-.2.9-.3 1.3-.4s.9-.3 1.3-.3l-.2.6c-.9 1.5-1.9 2.3-3.2 2.5-1.1.1-2.2.1-3.5-.2M89.9 176.1c-47.5 0-86.2-38.7-86.2-86.2S42.4 3.7 89.9 3.7c39 0 71.9 26 82.6 61.6-.6.1-1.2.3-1.8.4-.9.2-1.7.4-2.4.5s-1.9.3-3.7.7c-1.8.3-3.6.6-5.6.8s-3.8.3-5.5.2-2.7-.5-3.2-1.2c-.1-.9-.4-1.8-.8-2.6s-1.2-1.2-2.4-1.2c-.7 0-1.3.2-1.7.5s-.8.8-1.1 1.3-.5 1.1-.7 1.6c-.2.6-.4 1.1-.7 1.6-1 2.3-2.5 4.5-4.3 6.4 0-1.2-.3-2.2-.9-3s-1.6-1.1-3.2-1c-1.3.2-2.2.8-2.6 2-.2.6-.3 1.2-.2 1.8-10.2 8.9-22.8 8.7-23.5 8.7-.8 0-1.3-.3-1.5-.7-.6-1.2-.4-2.3.3-3.6s1.7-2.4 2.7-3.4c1.6.7 3.3 1.1 5.1 1.3s3.6 0 5.3-.5c1.1-.3 2-.8 2.8-1.5s1.4-1.4 1.8-2.3.5-1.7.2-2.5c-.2-.9-.9-1.7-2-2.4-.9-.6-2-1-3.2-1.1a10.28 10.28 0 0 0-3.5 0c-1.2.2-2.4.4-3.6.8s-2.3.8-3.2 1.3c-.8.4-1.7.9-2.5 1.5-.2 0-.5.1-.7.1-.7.2-1.3.3-1.8.3-1.7.3-3.3.5-4.9.7a40.28 40.28 0 0 1-4.9.3c-.8 0-1.6 0-2.4.1s-1.6-.1-2.3-.3c-.6-.5-1.1-.7-1.7-.6s-1.2.2-1.6.6c-.5.3-.8.8-1 1.4s-.2 1.2.2 1.8c.2.6.6 1.1 1.1 1.4-.8 1.6-1.7 3.1-2.8 4.5-1.1 1.3-2.1 2.7-3.1 3.9-.6.9-1.3 1.8-2 2.6s-1.5 1.7-2.3 2.5c-.3.3-1.1.9-2.3 1.6l1-1.9 1.8-3.6c.6-1.2 1.2-2.4 1.9-3.5 1.4-2.4 2.8-4.7 4.3-7l4.4-6.8c2.5-3.6 5.1-7.2 7.9-10.8 2.7-3.6 5.8-6.8 9.1-9.7.4-.4.7-.8.8-1.2.1-.5.1-.9-.1-1.3 0-.1-.1-.2-.1-.3v-.1c0-.3-.3-.6-.8-.9-.2-.2-.4-.3-.7-.3-.1 0-.1 0-.2-.1-.8-.3-1.5-.1-2.4 0-9.3 1.3-11.2 2.8-11.8 3.2-.4.3-.7.7-.8 1.1-.1.5-.1.9.1 1.3s.2.7.6 1 1 .5 1.6.4l5.5-1.3c-1.2 1.3-2.4 2.6-3.5 4-1.8 2.2-3.6 4.5-5.4 6.9-1.9 2.5-3.8 5.1-5.6 7.7l-3.3 4.9c-.2 0-.3.1-.4.1-1.3.4-2.3.7-3.1.9-1.8.6-3.6 1.3-5.4 2.2-1.8.8-3.5 1.7-5.2 2.6l-3.1 1.6c-1 .5-2.1.9-3.1 1.3.2-.7.5-1.4.9-2.1s.8-1.5 1.3-2.2l1.4-1.9c.4-.6.8-1.1 1-1.4 1.1-1.6 2.2-3.2 3.4-4.8 1.2-1.5 2.3-3.1 3.6-4.6 2.3-2.8 4.7-5.4 7.1-8 2.5-2.5 5.1-5 7.9-7.3.5-.4.7-.9.8-1.5s-.1-1.1-.3-1.6c-.3-.5-.7-.8-1.2-1.1-.5-.2-1.1-.2-1.7 0-.3 0-.6.1-.9.1-9.3 1.3-11.2 2.8-11.8 3.2-.4.3-.7.7-.8 1.1-.1.5-.1.9.1 1.3s.2.7.6 1 1 .5 1.6.4l4.4-1c-2.4 2.4-4.8 4.8-7 7.3-2.6 2.9-5 5.9-7.4 9l-2.9 3.7c-.6.8-1.2 1.5-1.7 2.3-11.2 12-25.8 11.2-26.5 11.2-.8-.1-1.3-.4-1.5-.9-.5-1.3-.4-2.7.4-4.1s1.7-2.6 2.8-3.7c1.6.8 3.3 1.4 5.1 1.7s3.6.2 5.4-.4c1.1-.3 2-.8 2.9-1.5.8-.7 1.5-1.6 1.9-2.5a4.78 4.78 0 0 0 .3-2.9c-.2-1-.8-1.9-2-2.8a7.27 7.27 0 0 0-3.1-1.4c-1.2-.2-2.3-.3-3.5-.2s-2.4.4-3.6.8c-1.3.3-2.4.8-3.4 1.3-2.1 1.1-4.1 2.6-6 4.4s-3.2 3.9-3.7 6.3c-.3 1.3-.4 2.5-.2 3.6s.6 2.1 1.3 3c.6.9 1.5 1.7 2.4 2.3 1 .7 2.1 1.1 3.3 1.4 1.3.3 2.6.4 3.9.4 1.1-.1 12.2-.3 19.9-5.4.2.6.5 1.2.9 1.7.7.8 1.4 1.2 2.4 1.3.9.1 1.8 0 2.7-.2 2.6-.7 5.1-1.8 7.5-3s4.8-2.5 7.3-3.6c.1 0 .2-.1.3-.1-.7 1.1-1.3 2.2-2 3.3-1.5 2.7-2.7 5.4-3.3 8.3-.3 1.3-.3 2.6 0 3.8s1.2 2 2.7 2.4c1.2.3 2.3.2 3.4-.3s2.2-1.2 3.2-2 1.9-1.8 2.7-2.8 1.5-2 2.2-2.8c1.4-2 2.7-4.1 4-6.2 1.3-2.2 2.3-4.4 3-6.7 1.5.2 3 .2 4.6.1s2.9-.2 3.8-.3c.5 0 1.3-.1 2.5-.1-.3.6-.5 1.3-.7 1.9-.3 1.2-.3 2.2-.1 3.2s.7 1.8 1.3 2.6c.7.8 1.5 1.4 2.4 1.9 1 .5 2.1.9 3.3 1.1 1.3.2 2.6.3 3.9.2 1.1-.1 12.6-.7 20.2-5.9 0 .2 0 .5.1.7.2.7.6 1.2 1.2 1.8 1.3 1 2.8 1.2 4.3.5 1.3-.5 2.4-1.2 3.3-2.3.9-1 1.8-2 2.6-3s1.6-2 2.4-3.1 1.6-2.2 2.3-3.3c1.4.7 2.9 1.1 4.5 1.3s3.3.2 4.8.2a67.09 67.09 0 0 0 6.3-.6c2.1-.3 4.2-.5 6.3-.8 1.2-.2 2.6-.4 4-.4.3 0 .6 0 .9-.1 1.2 5.7 1.8 11.7 1.8 17.7.1 47.5-38.5 86.2-86 86.2M89.9 0C40.3 0 0 40.3 0 89.9s40.3 89.9 89.9 89.9 89.9-40.3 89.9-89.9S139.5 0 89.9 0M44.1 107H22.5c-.1 0-.2 0-.3-.1-.5-.2-.8-.6-.8-1.1 0-.6.5-1.1 1-1.2h24.1v-3.5H20.3c-1.5 0-2.3 1.1-2.3 3.3v2.7c0 2.3.8 3.4 2.2 3.4h21.9c.2 0 .4.1.5.2.3.2.5.6.5 1 0 .6-.5 1.2-1.1 1.2H17.9v3.8H44c1.7 0 2.5-1.3 2.5-3.8v-2.4c.2-2.3-.7-3.5-2.4-3.5m75 5.3c0 .3-.2.6-.6.7h-3.7-7.3-9.8c-.3-.1-.6-.3-.6-.6h0 0v-6.9c0-.4.3-.8.8-.8h20.5.1c.3.1.6.4.6.8v6.8h0zm.8-11.2H96.4c-1.7 0-2.6 1.1-2.6 3.3v8.6c0 2.5.8 3.8 2.5 3.8h23.6c1.6 0 2.4-1.3 2.4-3.8v-8.6c.1-2.2-.7-3.3-2.4-3.3h0zm-39.4 6H59.1v-2.4h21.3c.6 0 1.2.5 1.2 1.2s-.5 1.1-1.1 1.2m1.8-6H55.9v15.7h3.2v-6.3h23.2c1.5 0 2.2-1.2 2.2-3.6v-2.6c0-2.2-.7-3.2-2.2-3.2m49.3 3.6h12.6v1.1l.1 10.9h3.2v-12h12.7v-3.5h-28.6v3.5z" fill="currentColor"></path></svg>